<?xml version="1.0" encoding="utf-8"?>
<!-- Generator: Adobe Illustrator 23.0.3, SVG Export Plug-In . SVG Version: 6.00 Build 0)  -->
<svg version="1.1" xmlns="http://www.w3.org/2000/svg" xmlns:xlink="http://www.w3.org/1999/xlink" x="0px" y="0px"
	 viewBox="0 0 40 40" style="enable-background:new 0 0 40 40;" xml:space="preserve">
<style type="text/css">
	.st0{clip-path:url(#SVGID_2_);}
	.st1{fill:#404040;}
	.st2{display:none;}
	.st3{display:inline;fill:#6CBEF6;}
	.st4{display:inline;}
	.st5{clip-path:url(#SVGID_4_);}
	.st6{fill:#6CBEF6;}
</style>
<g id="Шар_1">
	<g>
		<defs>
			<rect id="SVGID_1_" width="40" height="40"/>
		</defs>
		<clipPath id="SVGID_2_">
			<use xlink:href="#SVGID_1_"  style="overflow:visible;"/>
		</clipPath>
		<g class="st0">
			<path class="st1" d="M39.8,8.4c-0.2-0.3-0.6-0.5-1-0.5L14,6.7c-0.7,0-1.3,0.5-1.3,1.2c0,0.7,0.5,1.3,1.2,1.3l23.1,1l-4.5,14.2
				H12.2L8.5,4.6c-0.1-0.4-0.4-0.8-0.8-1l-6-2.4C1.1,1,0.3,1.3,0.1,2c-0.3,0.7,0.1,1.4,0.7,1.7l5.3,2.1L9.9,26
				c0.1,0.6,0.6,1.1,1.3,1.1h0.6L10.3,31c-0.1,0.3-0.1,0.7,0.1,1c0.2,0.3,0.5,0.5,0.9,0.5h1c-0.6,0.7-1,1.6-1,2.6
				c0,2.1,1.7,3.9,3.9,3.9c2.1,0,3.9-1.7,3.9-3.9c0-1-0.4-1.9-1-2.6h8.4c-0.6,0.7-1,1.6-1,2.6c0,2.1,1.7,3.9,3.9,3.9
				c2.1,0,3.9-1.7,3.9-3.9c0-1-0.4-1.9-1-2.6h1.2c0.6,0,1.1-0.5,1.1-1.1c0-0.6-0.5-1.1-1.1-1.1H12.9l1.2-3.2h19.4
				c0.6,0,1.1-0.4,1.2-0.9l5.3-16.7C40.1,9.1,40,8.7,39.8,8.4z M15.2,36.7c-0.9,0-1.7-0.8-1.7-1.7c0-0.9,0.8-1.7,1.7-1.7
				c0.9,0,1.7,0.8,1.7,1.7C16.9,35.9,16.1,36.7,15.2,36.7z M29.3,36.7c-0.9,0-1.7-0.8-1.7-1.7c0-0.9,0.8-1.7,1.7-1.7
				c0.9,0,1.7,0.8,1.7,1.7C31,35.9,30.2,36.7,29.3,36.7z"/>
		</g>
	</g>
</g>
<g id="Шар_2" class="st2">
	<path class="st3" d="M23.8,20c0,2.1-1.7,3.8-3.8,3.8s-3.8-1.7-3.8-3.8s1.7-3.8,3.8-3.8S23.8,17.9,23.8,20z"/>
	<path class="st3" d="M29,13.2c-0.2-0.5-0.5-1-0.9-1.3c-0.4-0.4-0.8-0.7-1.3-0.9c-0.4-0.2-1-0.3-2.1-0.4c-1.2-0.1-1.6-0.1-4.6-0.1
		c-3.1,0-3.4,0-4.6,0.1c-1.1,0.1-1.7,0.2-2.1,0.4c-0.5,0.2-1,0.5-1.3,0.9c-0.4,0.4-0.7,0.8-0.9,1.3c-0.2,0.4-0.3,1-0.4,2.1
		c-0.1,1.2-0.1,1.6-0.1,4.6c0,3.1,0,3.4,0.1,4.6c0.1,1.1,0.2,1.7,0.4,2.1c0.2,0.5,0.5,1,0.9,1.3c0.4,0.4,0.8,0.7,1.3,0.9
		c0.4,0.2,1,0.3,2.1,0.4c1.2,0.1,1.6,0.1,4.6,0.1c3.1,0,3.4,0,4.6-0.1c1.1-0.1,1.7-0.2,2.1-0.4c1-0.4,1.8-1.2,2.2-2.2
		c0.2-0.4,0.3-1,0.4-2.1c0.1-1.2,0.1-1.6,0.1-4.6c0-3.1,0-3.4-0.1-4.6C29.3,14.2,29.1,13.6,29,13.2L29,13.2z M20,25.9
		c-3.3,0-5.9-2.6-5.9-5.9c0-3.3,2.6-5.9,5.9-5.9c3.3,0,5.9,2.6,5.9,5.9C25.9,23.3,23.3,25.9,20,25.9z M26.1,15.2
		c-0.8,0-1.4-0.6-1.4-1.4c0-0.8,0.6-1.4,1.4-1.4s1.4,0.6,1.4,1.4C27.5,14.6,26.9,15.2,26.1,15.2z"/>
	<path class="st3" d="M20,0C9,0,0,9,0,20s9,20,20,20s20-9,20-20S31,0,20,0z M31.4,24.7c-0.1,1.2-0.2,2.1-0.5,2.8
		c-0.6,1.5-1.8,2.8-3.4,3.4c-0.7,0.3-1.6,0.5-2.8,0.5c-1.2,0.1-1.6,0.1-4.7,0.1c-3.1,0-3.5,0-4.7-0.1c-1.2-0.1-2.1-0.2-2.8-0.5
		c-0.8-0.3-1.5-0.7-2-1.3c-0.6-0.6-1-1.3-1.3-2c-0.3-0.7-0.5-1.6-0.5-2.8c-0.1-1.2-0.1-1.6-0.1-4.7s0-3.5,0.1-4.7
		c0.1-1.2,0.2-2.1,0.5-2.8c0.3-0.8,0.7-1.5,1.3-2c0.6-0.6,1.3-1,2-1.3c0.7-0.3,1.6-0.5,2.8-0.5c1.2-0.1,1.6-0.1,4.7-0.1
		s3.5,0,4.7,0.1c1.2,0.1,2.1,0.2,2.8,0.5c0.8,0.3,1.5,0.7,2,1.3c0.6,0.6,1,1.3,1.3,2c0.3,0.7,0.5,1.6,0.5,2.8
		c0.1,1.2,0.1,1.6,0.1,4.7S31.5,23.5,31.4,24.7L31.4,24.7z"/>
</g>
<g id="Шар_3" class="st2">
	<path class="st3" d="M28.1,12.9H11.9l8.1,6.9L28.1,12.9z"/>
	<path class="st3" d="M20,21.4c-0.2,0-0.3-0.1-0.5-0.2l-8.8-7.6v13.4h18.6V13.7l-8.8,7.6C20.3,21.4,20.2,21.4,20,21.4z"/>
	<path class="st3" d="M20,0C9,0,0,9,0,20c0,11,9,20,20,20c11,0,20-9,20-20C40,9,31,0,20,0z M30.7,27.9c0,0.4-0.3,0.7-0.7,0.7H10
		c-0.4,0-0.7-0.3-0.7-0.7V12.1c0-0.4,0.3-0.7,0.7-0.7h20c0.4,0,0.7,0.3,0.7,0.7V27.9z"/>
</g>
<g id="Шар_4" class="st2">
	<g class="st4">
		<defs>
			<rect id="SVGID_3_" width="40" height="40"/>
		</defs>
		<clipPath id="SVGID_4_">
			<use xlink:href="#SVGID_3_"  style="overflow:visible;"/>
		</clipPath>
		<g class="st5">
			<path class="st6" d="M34.1,5.9C26.3-2,13.7-2,5.9,5.9C-2,13.7-2,26.3,5.9,34.1c7.8,7.8,20.5,7.8,28.3,0C37.9,30.4,40,25.3,40,20
				C40,14.7,37.9,9.6,34.1,5.9z M30.3,27.9C30.3,27.9,30.3,27.9,30.3,27.9L30.3,27.9l-1,1c-1.3,1.3-3.2,1.9-5,1.4
				c-1.8-0.5-3.6-1.3-5.1-2.3c-1.5-0.9-2.8-2-4.1-3.3c-1.1-1.1-2.1-2.4-3-3.7c-1-1.4-1.7-3-2.3-4.6c-0.6-1.9-0.1-4,1.3-5.4l1.2-1.2
				c0.3-0.3,0.9-0.3,1.2,0c0,0,0,0,0,0l3.7,3.7c0.3,0.3,0.3,0.9,0,1.2c0,0,0,0,0,0L15,16.9c-0.6,0.6-0.7,1.6-0.2,2.3
				c0.8,1.1,1.7,2.1,2.6,3.1c1.1,1.1,2.2,2,3.5,2.9c0.7,0.5,1.7,0.4,2.3-0.2l2.1-2.2c0.3-0.3,0.9-0.3,1.2,0c0,0,0,0,0,0l3.8,3.8
				C30.6,27,30.6,27.5,30.3,27.9z"/>
		</g>
	</g>
</g>
</svg>
